<?xml version="1.0" encoding="UTF-8"?>
<svg id="Layer_2" data-name="Layer 2" xmlns="http://www.w3.org/2000/svg" viewBox="0 0 5425.57 2119.56">
  <defs>
    <style>
      .cls-1 {
        fill: #210059;
      }

      .cls-1, .cls-2, .cls-3, .cls-4, .cls-5, .cls-6 {
        stroke-width: 0px;
      }

      .cls-2 {
        fill: #000029;
      }

      .cls-3 {
        fill: #000;
      }

      .cls-4 {
        fill: none;
      }

      .cls-5 {
        fill: #18152b;
      }

      .cls-6 {
        fill: #12004f;
      }
    </style>
  </defs>
  <g id="ft">
    <g>
      <path class="cls-4" d="M2102.96,1216.21h8.54c3.43,0,6.24-2.67,6.24-6.1s-2.81-6.1-6.24-6.1h-8.54c-3.43,0-6.24,2.67-6.24,6.1s2.81,6.1,6.24,6.1Z"/>
      <polygon class="cls-4" points="518.14 1145.92 518.14 865.17 424.55 836.5 424.55 1133.7 518.14 1145.92"/>
      <polygon class="cls-4" points="737.88 1174.63 737.88 932.53 660.56 909.1 660.56 1164.65 737.88 1174.63"/>
      <polygon class="cls-4" points="1976.26 1338.28 2020.13 1338.28 2024.76 1319.29 1976.26 1319.29 1976.26 1338.28"/>
      <polygon class="cls-4" points="933.2 1200.33 933.2 992.82 862.67 971.1 862.67 1191.07 933.2 1200.33"/>
      <path class="cls-4" d="M2257.49,1190.43h7.75c3.11,0,5.66-2.99,5.66-6.11s-2.55-6.1-5.66-6.1h-5.88c-2.45,2.36-4.92,4.73-7.42,7.11.48,2.72,2.79,5.09,5.56,5.09Z"/>
      <polygon class="cls-4" points="1106.82 1223.01 1106.82 1046.03 1041.71 1026.02 1041.71 1214.48 1106.82 1223.01"/>
      <polygon class="cls-4" points="1257.38 1242.68 1257.38 1092.17 1197.69 1073.87 1197.69 1234.88 1257.38 1242.68"/>
      <rect class="cls-4" x="1814.85" y="1372.19" width="61.04" height="65.11"/>
      <rect class="cls-4" x="1814.85" y="1319.29" width="61.04" height="18.99"/>
      <path class="cls-4" d="M2178.37,1314.49l19.05-79.96c-6.21,5.43-12.26,10.9-19.05,16.41v63.55Z"/>
      <polygon class="cls-4" points="1384.88 1259.33 1384.88 1131.24 1330.62 1114.65 1330.62 1252.26 1384.88 1259.33"/>
      <rect class="cls-4" x="1888.1" y="1319.29" width="75.96" height="18.99"/>
      <rect class="cls-4" x="1888.1" y="1345.06" width="75.96" height="20.35"/>
      <rect class="cls-4" x="2083.42" y="1345.06" width="4.07" height="29.84"/>
      <polygon class="cls-4" points="1976.26 1365.41 2013.73 1365.41 2018.47 1345.06 1976.26 1345.06 1976.26 1365.41"/>
      <rect class="cls-4" x="1814.85" y="1345.06" width="61.04" height="20.35"/>
      <path class="cls-4" d="M5174.65,107.13l-12.22,12.51v45.45l11.39-1.48-.44-1.69,53.72-6.72,1.58,9.54-66.26,8.32v345.46c14.92-1.79,20.67-17.59,34.32-25.64,7.6-4.48,17.46-2.7,25.28-7.5,6.6-4.05,8.22-11.95,13.64-17.42V99.48l-61.02,7.65Z"/>
      <path class="cls-4" d="M4921.82,331.85l-8.97,9.08v49.65l20.05-2.58,1.14,6.67-21.18,2.68v231.24c20.35-12.37,52.9-17.93,75.96-22.01v-283.1l-66.99,8.37Z"/>
      <path class="cls-4" d="M5089.7,182.04l-11.36,11.37v47.25l2.24-.29-.21-1.52,48.42-6.04,1.06,8.58-48.38,6.04h0l-3.12.4v318.44c4.07-2.91,6.47-5.55,11.29-7.03,10.45-3.21,25.57,1.37,35.26,2.53,12.35-16.72,23.44-20.82,27.95-43.75.02,0,.09,0,.09,0V174.14l-63.24,7.89Z"/>
      <path class="cls-4" d="M5006.1,256.94l-10.51,10.22v47.68l35.26-4.57-.14,1.22h0l1.1,6.4-36.22,4.69v282.7c8.14-1.43,13.36-2.74,16.54-4.19,3.99-1.83,11.14,2.06,17.14-.76,7.09-3.33.01-14.27,4.26-16.56,12.07-6.5,18.31-.83,30.48-5.91,2.7-1.13,4.83-2.6,7.54-4.22V248.81l-65.45,8.13Z"/>
      <path class="cls-4" d="M4802.81,475.33h0l-50.36,6.33-6.44,6.8v270.84c9.5.81,9.66,14.39,21.72,12.04,15.26-2.98,33.58-33.13,50.32-42.52-3.59-7.31-.15-29.89,5.27-47.49v-208.53l-20.52,2.53Z"/>
      <path class="cls-4" d="M4895.88,399.36h0l-59.2,7.39-7.92,7.94v51.62l5.51-.71.82,5.71-6.33.8v193.23c1.36-1.8,1.35-3.32,2.07-4.44,20.17-31.6,36.84,2.47,61.76-.54-1.13-11.51,3.99-20.43,13.49-27.47v-234.75l-10.19,1.22Z"/>
      <polygon class="cls-4" points="1489.32 1272.97 1489.32 1163.24 1440.49 1148.35 1440.49 1266.63 1489.32 1272.97"/>
      <polygon class="cls-4" points="1330.62 1437.3 1384.88 1437.3 1384.88 1286.04 1330.62 1282.89 1330.62 1437.3"/>
      <polygon class="cls-4" points="1440.49 1437.3 1489.32 1437.3 1489.32 1292.12 1440.49 1289.29 1440.49 1437.3"/>
      <polygon class="cls-4" points="1197.69 1437.3 1257.38 1437.3 1257.38 1278.62 1197.69 1275.14 1197.69 1437.3"/>
      <polygon class="cls-4" points="862.67 1437.3 933.2 1437.3 933.2 1259.74 862.67 1255.61 862.67 1437.3"/>
      <polygon class="cls-4" points="660.56 1437.3 737.88 1437.3 737.88 1248.29 660.56 1243.83 660.56 1437.3"/>
      <polygon class="cls-4" points="1041.71 1437.3 1106.82 1437.3 1106.82 1269.85 1041.71 1266.05 1041.71 1437.3"/>
      <polygon class="cls-4" points="424.55 1437.3 518.14 1437.3 518.14 1235.49 424.55 1230.04 424.55 1437.3"/>
      <path class="cls-4" d="M2356.7,1168.73c2.69,0,4.9-2.06,4.9-4.75s-2.2-4.75-4.9-4.75h-6.7c-2.69,0-4.9,2.05-4.9,4.75s2.2,4.75,4.9,4.75h6.7Z"/>
      <path class="cls-4" d="M2766.5,1293.54c-68.01,6.25-132.09,9.37-192.24,9.37-9.65,0-20.17-.09-28.31-.25v36.11c283.49,3.47,526.79-7.79,689.06-18.73,16.25-1.1,31.85-2.21,47.06-3.33-68.47-24.82-131.87-48.7-190.01-71.35-9.87,1.96-19.94,3.9-30.14,5.83-103.52,19.6-202.94,33.85-295.42,42.34Z"/>
      <rect class="cls-4" x="1814.85" y="1292.16" width="149.2" height="13.56"/>
      <rect class="cls-4" x="1726.69" y="1319.29" width="75.96" height="18.99"/>
      <path class="cls-4" d="M3548.32,1300.15c-21.7,2.59-66.15,7.6-128.92,13.42-7.67,4.49-15.86,9.17-24.18,13.69l11.92,110.03h141.17v-137.14Z"/>
      <polygon class="cls-4" points="104.44 1437.3 264.5 1437.3 264.5 1271.69 104.44 1403.71 104.44 1437.3"/>
      <path class="cls-4" d="M3548.32,1218.82c-20.35,18.76-56.37,50.57-112.25,84.99,54.6-5.21,91.91-9.61,112.25-11.92v-73.08Z"/>
      <rect class="cls-4" x="1726.69" y="1372.19" width="75.96" height="65.11"/>
      <path class="cls-4" d="M2279.88,1183.65c0,8.59-7.03,14.92-15.62,14.92h-24.85v135.64h16.28v-40.69h22.5l34.04-142.42h43.62c5.47,0,10.19,2.71,12.31,8.14h40.61c7.43,0,13.5,6.13,13.5,13.57s-6.08,13.56-13.5,13.56h-21.52v115.29h6.78v-18.99h21.96l25.51-108.54v-188.51h-12.52l.49-3.4c-9.92,14.61-29.74,42.31-60.09,78.59-23.99,28.67-57.56,66.15-100.83,108.51,6.52,1.71,11.32,7.23,11.32,14.33Z"/>
      <rect class="cls-4" x="1726.69" y="1345.06" width="75.96" height="20.35"/>
      <path class="cls-4" d="M2409.62,1178.23c2.69,0,4.9-2.74,4.9-5.42s-2.2-5.43-4.9-5.43h-6.7c-2.69,0-4.89,2.73-4.89,5.43s2.2,5.42,4.89,5.42h6.7Z"/>
      <polygon class="cls-4" points="1976.26 1305.73 2027.75 1305.73 2031.15 1292.16 1976.26 1292.16 1976.26 1305.73"/>
      <polygon class="cls-4" points="2102.41 1338.28 2102.41 1340.99 2112.59 1340.99 2124.18 1292.16 2083.42 1292.16 2083.42 1338.28 2102.41 1338.28"/>
      <path class="cls-4" d="M2487.81,1157.88h6.7c2.69,0,4.9-2.06,4.9-4.75s-2.2-4.75-4.9-4.75h-6.7c-2.69,0-4.9,2.06-4.9,4.75s2.2,4.75,4.9,4.75Z"/>
      <path class="cls-4" d="M2200.06,1224.68l5.12-20.87c-.75.11-1.36.19-2.14.19h-24.68v39.26c8.14-6.24,14.73-12.43,21.69-18.58Z"/>
      <path class="cls-4" d="M3060.65,1243.14c5.85-1.11,11.5-2.22,17.24-3.34-149.98-58.75-264.35-108.92-343.43-145.48-105.25-48.65-168.17-82.22-188.51-94.04v294.16c181.76,3.03,375.82-25,514.7-51.3Z"/>
      <path class="cls-4" d="M2735.94,1091.16c79.93,36.94,195.99,87.81,348.38,147.38,4.84-.95,9.57-1.9,14.33-2.86-154.65-63.63-272.47-120.87-353.24-163.26-103.78-54.48-165.82-94.28-188.01-109.16l.87,6.08h-12.33v26.91c18.99,10.83,81.74,44.87,189.99,94.91Z"/>
      <path class="cls-4" d="M3340.87,1312.29l2.99-26.91h-17.99v-54.26h23.95l3.48-31.2h-.3v-16.02c-32.55,9.23-117.56,31.88-228.37,54.84,59.91,24.31,125.13,49.55,195.62,75.12,7-.55,13.89-1.03,20.63-1.57Z"/>
      <path class="cls-4" d="M2520.18,1338.43v-36.39c-1.36-.07-4.07-.13-5.43-.21v36.51c1.36.03,4.07.07,5.43.1Z"/>
      <path class="cls-4" d="M3405.04,1314.86c-3.7.33-7.44.67-11.26,1.01l.55,4.95c3.63-1.99,7.2-3.97,10.71-5.96Z"/>
      <path class="cls-4" d="M3338.14,1337.04c-12.62-4.48-25.07-9.01-37.37-13.44-20.79,1.58-42.65,3.11-65.51,4.66-141.96,9.57-345.55,19.38-584.39,19.38-34.38,0-69.66-.23-104.93-.66v90.33h781.15l11.05-100.26Z"/>
      <path class="cls-4" d="M3339.91,1320.88l.05-.44c-.35.03-.7.06-1.05.08.33.12.67.24,1,.36Z"/>
      <path class="cls-4" d="M3338.54,1333.29l.58-5.23c-5.76-2.06-11.48-4.12-17.17-6.18-4.16.33-8.36.65-12.61.98,9.63,3.46,19.36,6.94,29.2,10.43Z"/>
      <path class="cls-4" d="M2520.18,1346.63c-1.36-.03-4.07-.07-5.43-.1v90.77h5.43v-90.66Z"/>
      <polygon class="cls-4" points="1983.05 1374.9 2011.37 1374.9 2012.07 1372.19 1976.26 1372.19 1976.26 1437.3 1983.05 1437.3 1983.05 1374.9"/>
      <path class="cls-4" d="M3098.4,1244.09c58.8,22.85,122.83,46.95,192.09,71.99,4.33-.32,8.6-.65,12.83-.97-68.83-25.17-132.52-49.92-191.07-73.81-4.58.93-9.2,1.86-13.86,2.8Z"/>
      <path class="cls-4" d="M2334.35,1285.55l26.14-108.31c-1.55.63-2.89.98-4.65.98h-21.5v107.33Z"/>
      <polygon class="cls-4" points="264.5 874.83 104.44 950.85 104.44 1277.37 264.5 1164.36 264.5 874.83"/>
      <rect class="cls-4" x="1888.1" y="1372.19" width="75.96" height="65.11"/>
      <path class="cls-4" d="M2196.28,1194.5h7.75c1.54,0,2.95-.74,3.97-1.86l1.41-5.94c-.71-2.42-2.85-4.41-5.38-4.41h-7.75c-3.11,0-5.66,2.99-5.66,6.1s2.55,6.1,5.66,6.1Z"/>
      <path class="cls-3" d="M4746.02,759.31v-270.84l6.31-6.8,50.73-6.33h0l20.27-2.53v208.53c1.36-6.27,4.07-11.9,5.43-15.99v-193.23l6.22-.8-.61-5.71-5.62.71v-51.62l7.73-7.94,59.5-7.39h0l10.08-1.22v234.75c1.36-1.52,4.07-2.96,6.78-4.31v-231.24l20.88-2.68-.53-6.67-20.35,2.58v-49.65l8.97-9.08,66.99-8.37v283.1c2.71-.45,4.07-.87,6.78-1.29v-282.7l36.21-4.69-1.09-6.4h-.01l.16-1.22-35.27,4.57v-47.68l10.51-10.22,65.45-8.13v324.83c2.71-2.31,4.07-4.93,6.78-7.37V247.82l3.12-.4h0l48.4-6.04-1.08-8.58-48.44,6.04.24,1.52-2.24.29v-47.25l11.36-11.37,63.24-7.89v343.88c4.07.69,6.78.81,9.5.49V173.06l66.21-8.32-1.42-9.54-53.95,6.72.61,1.69-11.45,1.48v-45.45l12.22-12.51,61.02-7.65v368.47c1.36-.75,1.72-1.47,2.75-2.11,1.97-1.24,4.03-2.05,6.75-2.66V98.29l81.54-10.2-1.4-10.5-59.28,7.39.38,1.86-21.25,2.67v-43.65l13.47-13.65,166.34-20.77-1.47-11.45-64.67,8.07.42,2.03-123.58,15.44h0v65.17l-82.74,10.3h0v65.17l-81.38,10.3h0v65.17l-82.74,10.3h0v63.8l-.81.04-.08,1.54-82.45,10.46h.6v63.6l-11.02,1.33-.04.93-72.17,8.74h.5v64.64l-21.23,2.62v1.01s-61.91,7.69-61.91,7.69h.4v281.34c1.36-.16,2.3-.31,3.42-.38.59-.04.65-.03,2.01.02Z"/>
      <path class="cls-3" d="M4661.92,562.23l5.57-5.66,42.16-5.27h0l26.78-3.35-.6-4.75-26.81,3.35.1,1.09-51.54,6.65h.27v271.74c1.36-1.1,2.71-2.23,4.07-3.37v-260.42Z"/>
      <polygon class="cls-3" points="4579.18 635.99 4583.33 631.47 4616.84 627.27 4616.84 627.27 4638.15 624.6 4637.63 620.81 4616.21 623.48 4616.18 624.15 4575.11 629.26 4575.11 660.12 4579.18 659.17 4579.18 635.99"/>
      <path class="cls-6" d="M4369.66,800.48c21.85-1.04,34.04-22.66,60.44-20.39,22.98,1.98,35.96,8,61.83,2.46,36.24-7.76,18.66-.13,48.82,16.49,17.91,9.87,41.14.53,58.78,6.24v-152.27l-20.67,6.15-2.8.95-30.79,9.46v31.19h-17.63v-6.78h-8.14v6.78h-16.28v-6.78h-9.49v6.78h-23.06v-12.21h6.78v-20.35h-32.55v20.35h6.78v12.21h-24.33l-10.89-13.56h-17.67v-16.28h-31.2v17.63h5.42v12.21h-29.84v90.42c6.78,3.88,14.35,9.86,26.49,9.29Z"/>
      <path class="cls-6" d="M4118.64,976.79c-1.34-4.21-.09-9.2-2.03-13.66,10.89-8.19,45.43-24.25,54.3-30.67,12.72-9.21,25.22-7.44,40.59-15.38,1.41-14.01-7.65-24.36-20.39-29.36-.11.06-.22.12-.33.18-2.22-.1-2.22-.21,0-.32.11.04.22.09.33.14,19.23-10.38,31.22-19.32,50.17-6.33-2.17-30.7,23.29-25.74,40.06-37.7,17.25-12.3,18.1-36.11,34.23-48.57,5.55-4.29,9.96-6.31,14.03-6.89v-73.56l-54.26,22.66v42.14h-16.28v-8.14h-9.5v8.14h-16.28v-8.14h-9.5v8.14h-21.7v-16.28h6.78v-27.13h-32.55v27.13h5.43v16.28h-23.44l-10.89-17.63h-17.21v-21.7h-31.2v23.06h4.07v16.28h-28.48v246.67c6.78-2.9,13.71-5.44,20.63-7.51,7.29-16.01.39-40.34,23.41-41.82Z"/>
      <polygon class="cls-5" points="4672.77 1075.6 4698.54 1083.62 4698.54 1034.55 4672.77 1028.42 4672.77 1075.6"/>
      <polygon class="cls-5" points="4923.7 1074.69 4944.05 1079.13 4944.05 1024.32 4923.7 1021.75 4923.7 1074.69"/>
      <polygon class="cls-5" points="4839.61 1127.91 4859.3 1133.47 4861.31 1133.47 4861.31 1073.62 4839.61 1068.4 4839.61 1127.91"/>
      <polygon class="cls-5" points="4923.7 1133.47 4944.05 1133.47 4944.05 1093.15 4923.7 1088.4 4923.7 1133.47"/>
      <polygon class="cls-5" points="5007.8 1093.38 5025.43 1097.39 5025.43 1034.89 5007.8 1032.57 5007.8 1093.38"/>
      <polygon class="cls-5" points="4965.75 1084.03 4984.74 1088.26 4984.74 1029.6 4965.75 1027.16 4965.75 1084.03"/>
      <path class="cls-5" d="M4231.99,1140.99l55.41-3.27,37.43-36.85,61.62-6.11,14.96,6.08,10.06,29.66,36.89-2.13,44.31,26.19.71,282.74h35.04l.58-.63v-303.2h46.12v-79.91l-14.92-5.25v-8.02l14.92,5v-40.04l-14.92-3.82v-8.02l14.92,3.57v-20.23l-14.92-2.07v-8.02l14.92,1.82v-14.89l5.67-.36,7.89.36v16.4l28.48,3.14v-16.06l5.59-.38,7.97.38v17.68l27.13,3.03v-17.23l6.19-.41,8.73.41v18.96l25.77,2.92v-18.4l6.79-.44,9.49.44v20.24l24.41,2.81v-19.57l7.39-.46,10.25.46v21.52l23.06,2.7v-20.74l7.31-.49,10.32.49v22.8l23.06,2.59v-21.91l7.9-.51,11.08.51v24.08l21.7,2.48v-23.08l8.5-.54,11.84.54v25.36l20.35,2.37v-24.25l9.1-.57,12.6.57v26.64l20.35,2.26v-25.42l9.02-.59,12.68.59v27.91l18.99,2.15v-26.59l9.62-.62,13.44.62v29.2l17.63,2.04v-27.76l9.54-.64,13.52.64v30.47l17.63,1.93v-28.93l10.14-.67,14.28.67v31.75l16.28,1.82v-30.1l10.73-.7,15.04.7v33.03l14.92,1.71v-31.27l11.33-.72,15.8.72v34.31l13.56,1.6v-32.44l11.93-.75,16.55.75v35.59l12.21,1.49v-33.61l12.53-.78,17.31.78v36.87l12.21,1.38v-34.78l11.77-.8,16.71.8v38.15l12.21,1.27v-35.95l12.37-.83,17.47.83v39.43l10.85,1.16v-37.12l12.97-.85,18.23.85v40.71l9.49,1.05v-38.29l13.23-.88,16.72.78,2.01-657.81c-20.04-3.07-14.2,9.23-30.73,12.1-18.62,3.23-26.13-9.6-41.22,9.55-8.22,10.44-8.46,26.83-15.7,38.06-7.18,11.14-17.25,21.1-23.89,33.15-21.19-9.65-17.12-29.66-38.79-21.19-2.96,1.16-6.87,16.81-11.88,20.97-4.09,3.39-11.46,3.69-17.95,5.32-2.45.62-4.77,1.42-6.75,2.66-1.02.65-1.93,1.36-2.75,2.11-5.92,5.47-7.1,13.38-13.7,17.42-7.83,4.8-17.73,3.02-25.34,7.5-13.65,8.05-20.06,23.85-34.77,25.64-2.61.32-5.48.2-8.7-.49-.02,0-.04,0-.05,0-4.51,22.93-15.56,27.03-27.91,43.75-9.7-1.15-24.85-5.73-35.29-2.53-4.83,1.48-8.23,4.12-11.35,7.03-2.61,2.44-5.03,5.06-7.91,7.37-2.02,1.62-4.26,3.09-6.97,4.22-12.18,5.08-17.84-.59-29.91,5.91-4.25,2.29,2.75,13.23-4.34,16.56-6,2.82-13.32-1.07-17.3.76-3.18,1.46-9.18,2.76-16.87,4.19-2.24.42-4.62.84-7.11,1.29-22.92,4.08-55.52,9.64-76.19,22.01-2.26,1.35-4.37,2.79-6.32,4.31-9,7.04-14.35,15.96-13.22,27.47-24.91,3-41.32-31.06-61.49.54-.72,1.12-1.49,2.64-2.28,4.44-1.8,4.09-3.74,9.72-5.52,15.99-5.01,17.6-8.85,40.18-5.26,47.49-16.75,9.39-35.05,39.55-50.31,42.52-12.06,2.35-12.79-11.23-22.21-12.04-.53-.05-1.07-.06-1.66-.02-1.12.08-2.12.22-3.07.38-9.52,1.67-11.28,7.6-20.16,12.36-24.52,13.14-39.58,33.94-58.41,50.63-1.29,1.15-2.6,2.27-3.94,3.37-6.61,5.47-13.75,10.37-21.96,14.23-12.96-8.86-19.01-26.34-32.77-33.22-1.42-.71-2.89-1.28-4.38-1.76-17.83-5.71-40.46,3.63-58.38-6.24-30.16-16.62-12.19-24.25-48.42-16.49-25.86,5.54-38.89-.49-61.87-2.46-26.4-2.27-38.68,19.35-60.52,20.39-12.14.57-19.41-5.41-26.65-9.29-4.11-2.2-8.21-3.71-13.18-2.98-3.98.59-8.51,2.61-14.06,6.89-16.13,12.46-17.01,36.27-34.26,48.57-16.77,11.96-42.22,7-40.06,37.7-18.95-12.99-30.94-4.06-50.17,6.33,12.74,5,21.8,15.35,20.39,29.36-15.37,7.94-27.88,6.17-40.59,15.38-8.87,6.42-43.41,22.49-54.3,30.67,1.94,4.46.68,9.45,2.03,13.66-23.02,1.48-16.51,25.81-23.8,41.82-6.91,2.06-14.03,4.61-21.02,7.51-28.46,11.82-54.78,29.71-56.44,46.66-1.99,20.18-69.02,48.47-77.89,68,11.57,12.17,27.49,14.47,43.88,13.15,1.48,10.91-.35,20.86-5.07,28.82,10.9,6.66,8.51,11.64,13.59,22.38.86,1.81,9.15,25.49,9.63,26.04,6.19,7.22,38.48,29.63,50.66,30.54-1.2,1.47-3.97,1.39-5.33,2.92,13.68,27.21-17.05,27.3-18.76,49.7-22.79-9.41-22.44,36.85-41.28,51.43-9.72-6.47-11.84-6.98-23.36-9.77-3.39-6.94-17.88-37.63-28.26-27.23-9.49,9.5,12.7,28.63,9.39,42.22-9.73-1.69-18.28-9.35-26-14.08-3.63,10.67.04,19.83,5.08,29.03-6.91-.41-10.84,3.77-17,4.17,12.18,20.32-3,33.63-17.34,47.2h343.39l-.71-296.31Z"/>
      <polygon class="cls-5" points="4965.75 1133.47 4984.74 1133.47 4984.74 1102.92 4965.75 1098.4 4965.75 1133.47"/>
      <polygon class="cls-5" points="4672.77 1133.47 4698.54 1133.47 4698.54 1093.8 4672.77 1085.38 4672.77 1133.47"/>
      <polygon class="cls-5" points="4588.67 999.95 4617.16 1006.11 4617.16 982.04 4588.67 978.47 4588.67 999.95"/>
      <polygon class="cls-5" points="4630.72 1062.52 4657.85 1070.84 4657.85 1024.78 4630.72 1018.42 4630.72 1062.52"/>
      <polygon class="cls-5" points="4839.61 1056.01 4861.31 1060.88 4861.31 1013.75 4839.61 1010.93 4839.61 1056.01"/>
      <polygon class="cls-5" points="4714.82 1088.68 4739.23 1096.4 4739.23 1044.31 4714.82 1038.41 4714.82 1088.68"/>
      <polygon class="cls-5" points="4588.67 1133.47 4593.97 1133.47 4595.23 1133.47 4617.16 1133.47 4617.16 1066.97 4588.67 1057.92 4588.67 1133.47"/>
      <polygon class="cls-5" points="4714.82 1133.47 4739.23 1133.47 4739.23 1107.22 4714.82 1099.11 4714.82 1133.47"/>
      <polygon class="cls-5" points="4630.72 1009.29 4657.85 1015.24 4657.85 987.32 4630.72 983.88 4630.72 1009.29"/>
      <polygon class="cls-5" points="4588.67 1049.44 4617.16 1058.07 4617.16 1015.02 4588.67 1008.42 4588.67 1049.44"/>
      <polygon class="cls-5" points="4630.72 1133.47 4657.85 1133.47 4657.85 1080.39 4630.72 1071.65 4630.72 1133.47"/>
      <polygon class="cls-5" points="4672.77 1018.63 4698.54 1024.37 4698.54 992.61 4672.77 989.29 4672.77 1018.63"/>
      <polygon class="cls-5" points="5383.52 1133.47 5393.01 1133.47 5393.01 1082.46 5383.52 1081.26 5383.52 1133.47"/>
      <polygon class="cls-5" points="5299.42 1133.47 5311.63 1133.47 5311.63 1071.89 5299.42 1070.44 5299.42 1133.47"/>
      <polygon class="cls-5" points="4797.56 1046.66 4820.62 1051.75 4820.62 1008.46 4797.56 1005.52 4797.56 1046.66"/>
      <polygon class="cls-5" points="4881.66 1065.35 4902 1070 4902 1019.03 4881.66 1016.34 4881.66 1065.35"/>
      <polygon class="cls-5" points="5007.8 1133.47 5025.43 1133.47 5025.43 1112.68 5007.8 1108.39 5007.8 1133.47"/>
      <polygon class="cls-5" points="4797.56 1114.83 4820.62 1121.95 4820.62 1063.85 4797.56 1058.41 4797.56 1114.83"/>
      <polygon class="cls-5" points="4756.87 1133.47 4779.93 1133.47 4779.93 1120.63 4756.87 1112.84 4756.87 1133.47"/>
      <polygon class="cls-5" points="4756.87 1101.75 4779.93 1109.17 4779.93 1054.08 4756.87 1048.41 4756.87 1101.75"/>
      <polygon class="cls-5" points="4881.66 1133.47 4902 1133.47 4902 1083.38 4881.66 1078.4 4881.66 1133.47"/>
      <polygon class="cls-5" points="4756.87 1037.32 4779.93 1042.62 4779.93 1003.18 4756.87 1000.11 4756.87 1037.32"/>
      <polygon class="cls-5" points="4797.56 1133.47 4820.62 1133.47 4820.62 1134.05 4797.56 1126.58 4797.56 1133.47"/>
      <polygon class="cls-5" points="5341.47 1133.47 5352.32 1133.47 5352.32 1077.17 5341.47 1075.85 5341.47 1133.47"/>
      <polygon class="cls-5" points="5174.64 1130.75 5188.2 1133.9 5188.2 1056.03 5174.64 1054.21 5174.64 1130.75"/>
      <polygon class="cls-5" points="5090.54 1133.47 5106.82 1133.47 5106.82 1132.21 5090.54 1128.39 5090.54 1133.47"/>
      <polygon class="cls-5" points="5090.54 1112.06 5106.82 1115.64 5106.82 1045.46 5090.54 1043.39 5090.54 1112.06"/>
      <polygon class="cls-5" points="5132.59 1121.41 5147.51 1124.77 5147.51 1050.74 5132.59 1048.8 5132.59 1121.41"/>
      <polygon class="cls-5" points="5048.49 1133.47 5066.12 1133.47 5066.12 1122.45 5048.49 1118.39 5048.49 1133.47"/>
      <polygon class="cls-5" points="4714.82 1027.98 4739.23 1033.49 4739.23 997.89 4714.82 994.7 4714.82 1027.98"/>
      <polygon class="cls-5" points="5048.49 1102.72 5066.12 1106.52 5066.12 1040.17 5048.49 1037.98 5048.49 1102.72"/>
      <polygon class="cls-5" points="5216.68 1133.47 5228.89 1133.47 5228.89 1061.32 5216.68 1059.62 5216.68 1133.47"/>
      <polygon class="cls-5" points="5258.73 1133.47 5270.94 1133.47 5270.94 1066.6 5258.73 1065.03 5258.73 1133.47"/>
      <path class="cls-5" d="M4190.77,887.89c.11-.06.22-.12.33-.18-.11-.04-.22-.09-.33-.14-2.22.11-2.22.22,0,.32Z"/>
      <polygon class="cls-1" points="4797.56 1209.76 4820.62 1218.27 4820.62 1133.47 4797.56 1133.47 4797.56 1209.76"/>
      <polygon class="cls-1" points="5007.8 1287.9 5025.43 1294.6 5025.43 1201.13 5007.8 1195.24 5007.8 1287.9"/>
      <polygon class="cls-1" points="4965.75 1272.27 4984.74 1279.33 4984.74 1187.71 4965.75 1181.5 4965.75 1272.27"/>
      <polygon class="cls-1" points="5007.8 1180.22 5025.43 1185.83 5025.43 1133.47 5007.8 1133.47 5007.8 1180.22"/>
      <polygon class="cls-1" points="5048.49 1303.52 5066.12 1309.87 5066.12 1214.54 5048.49 1208.97 5048.49 1303.52"/>
      <polygon class="cls-1" points="5132.59 1219.46 5147.51 1224.16 5147.51 1141.98 5132.59 1138.38 5132.59 1219.46"/>
      <polygon class="cls-1" points="5090.54 1319.15 5106.82 1325.13 5106.82 1227.96 5090.54 1222.7 5090.54 1319.15"/>
      <polygon class="cls-1" points="5090.54 1206.38 5106.82 1211.39 5106.82 1133.47 5090.54 1133.47 5090.54 1206.38"/>
      <polygon class="cls-1" points="5132.59 1334.78 5147.51 1340.4 5147.51 1241.38 5132.59 1236.43 5132.59 1334.78"/>
      <polygon class="cls-1" points="4839.61 1225.39 4861.31 1233.53 4861.31 1147.46 4839.61 1140.31 4839.61 1225.39"/>
      <polygon class="cls-1" points="4881.66 1140.99 4902 1147.5 4902 1133.47 4881.66 1133.47 4881.66 1140.99"/>
      <polygon class="cls-1" points="4861.27 1134.73 4861.27 1134.11 4859.3 1134.11 4861.27 1134.73"/>
      <polygon class="cls-1" points="4881.66 1241.02 4902 1248.8 4902 1160.88 4881.66 1154.04 4881.66 1241.02"/>
      <polygon class="cls-1" points="4923.7 1256.64 4944.05 1264.07 4944.05 1174.3 4923.7 1167.77 4923.7 1256.64"/>
      <polygon class="cls-1" points="4965.75 1167.14 4984.74 1173.06 4984.74 1133.47 4965.75 1133.47 4965.75 1167.14"/>
      <polygon class="cls-1" points="4923.7 1154.07 4944.05 1160.28 4944.05 1133.47 4923.7 1133.47 4923.7 1154.07"/>
      <polygon class="cls-1" points="5048.49 1193.3 5066.12 1198.61 5066.12 1133.47 5048.49 1133.47 5048.49 1193.3"/>
      <polygon class="cls-1" points="5341.47 1168.12 5352.32 1170.41 5352.32 1133.47 5341.47 1133.47 5341.47 1168.12"/>
      <polygon class="cls-1" points="5341.47 1284.85 5352.32 1288.05 5352.32 1190.81 5341.47 1188.37 5341.47 1284.85"/>
      <polygon class="cls-1" points="5299.42 1271.77 5311.63 1275.27 5311.63 1181.05 5299.42 1178.37 5299.42 1271.77"/>
      <polygon class="cls-1" points="5341.47 1412.91 5352.32 1416.73 5352.32 1308.45 5341.47 1305.09 5341.47 1412.91"/>
      <polygon class="cls-1" points="5299.42 1397.28 5311.63 1401.47 5311.63 1295.04 5299.42 1291.36 5299.42 1397.28"/>
      <polygon class="cls-1" points="5174.64 1232.53 5188.2 1236.94 5188.2 1151.75 5174.64 1148.38 5174.64 1232.53"/>
      <polygon class="cls-1" points="5383.52 1297.92 5393.01 1300.82 5393.01 1200.58 5383.52 1198.36 5383.52 1297.92"/>
      <polygon class="cls-1" points="5383.52 1177.46 5393.01 1179.54 5393.01 1133.47 5383.52 1133.47 5383.52 1177.46"/>
      <polygon class="cls-1" points="5383.52 1428.54 5393.01 1432 5393.01 1321.87 5383.52 1318.82 5383.52 1428.54"/>
      <polygon class="cls-1" points="5216.68 1245.61 5228.89 1249.72 5228.89 1161.51 5216.68 1158.38 5216.68 1245.61"/>
      <polygon class="cls-1" points="5216.68 1140.09 5228.89 1143.03 5228.89 1133.47 5216.68 1133.47 5216.68 1140.09"/>
      <polygon class="cls-1" points="5299.42 1158.78 5311.63 1161.28 5311.63 1133.47 5299.42 1133.47 5299.42 1158.78"/>
      <polygon class="cls-1" points="5174.64 1350.4 5188.2 1355.67 5188.2 1254.79 5174.64 1250.16 5174.64 1350.4"/>
      <polygon class="cls-1" points="5258.73 1381.66 5270.94 1386.2 5270.94 1281.62 5258.73 1277.63 5258.73 1381.66"/>
      <polygon class="cls-1" points="5258.73 1149.44 5270.94 1152.15 5270.94 1133.47 5258.73 1133.47 5258.73 1149.44"/>
      <polygon class="cls-1" points="5216.68 1366.03 5228.89 1370.93 5228.89 1268.21 5216.68 1263.9 5216.68 1366.03"/>
      <polygon class="cls-1" points="5258.73 1258.69 5270.94 1262.49 5270.94 1171.28 5258.73 1168.37 5258.73 1258.69"/>
      <polygon class="cls-1" points="4630.72 1147.25 4657.85 1157.2 4657.85 1133.47 4630.72 1133.47 4630.72 1147.25"/>
      <polygon class="cls-1" points="4756.87 1194.13 4779.93 1203 4779.93 1133.47 4756.87 1133.47 4756.87 1194.13"/>
      <polygon class="cls-1" points="4617.16 1141.93 4617.16 1133.47 4595.23 1133.47 4617.16 1141.93"/>
      <polygon class="cls-1" points="4714.82 1178.51 4739.23 1187.73 4739.23 1133.47 4714.82 1133.47 4714.82 1178.51"/>
      <polygon class="cls-1" points="4672.77 1162.88 4698.54 1172.47 4698.54 1133.47 4672.77 1133.47 4672.77 1162.88"/>
      <polygon class="cls-3" points="4560.19 993.41 4560.19 1001.43 4575.11 1005.25 4575.11 996.98 4560.19 993.41"/>
      <polygon class="cls-3" points="4560.19 966.67 4560.19 974.68 4575.11 976.75 4575.11 968.48 4560.19 966.67"/>
      <polygon class="cls-3" points="4560.19 1040.29 4560.19 1048.31 4575.11 1053.56 4575.11 1045.29 4560.19 1040.29"/>
      <polygon class="cls-3" points="611.73 1158.13 611.73 893.81 518.14 865.17 518.14 1145.92 611.73 1158.13"/>
      <polygon class="cls-3" points="611.73 565.14 518.14 565.14 518.14 775.6 611.73 811.02 611.73 565.14"/>
      <polygon class="cls-3" points="819.26 645.16 737.88 645.16 737.88 858.88 819.26 890.05 819.26 645.16"/>
      <polygon class="cls-3" points="819.26 1185.38 819.26 957.74 737.88 932.53 737.88 1174.63 819.26 1185.38"/>
      <polygon class="cls-3" points="1005.09 1209.62 1005.09 1014.6 933.2 992.82 933.2 1200.33 1005.09 1209.62"/>
      <polygon class="cls-3" points="1005.09 725.19 933.2 725.19 933.2 933.41 1005.09 960.34 1005.09 725.19"/>
      <polygon class="cls-3" points="1166.5 805.22 1106.82 805.22 1106.82 999.19 1166.5 1021.88 1166.5 805.22"/>
      <polygon class="cls-3" points="1166.5 1230.84 1166.5 1064.38 1106.82 1046.03 1106.82 1223.01 1166.5 1230.84"/>
      <polygon class="cls-3" points="1306.21 1249.04 1306.21 1107.1 1257.38 1092.17 1257.38 1242.68 1306.21 1249.04"/>
      <polygon class="cls-3" points="1306.21 898.81 1257.38 898.81 1257.38 1056.24 1306.21 1074.69 1306.21 898.81"/>
      <polygon class="cls-3" points="1421.5 978.84 1384.88 978.84 1384.88 1104.53 1421.5 1118.74 1421.5 978.84"/>
      <polygon class="cls-3" points="1421.5 1264.23 1421.5 1142.74 1384.88 1131.24 1384.88 1259.33 1421.5 1264.23"/>
      <polygon class="cls-3" points="1515.09 1088.71 1489.32 1088.71 1489.32 1144.09 1515.09 1154.06 1515.09 1088.71"/>
      <polygon class="cls-3" points="1515.09 1276.41 1515.09 1171.3 1489.32 1163.24 1489.32 1272.97 1515.09 1276.41"/>
      <path class="cls-6" d="M424.55,1437.3v-207.26l93.63,5.45,93.56,5.44v196.37h48.83v-193.46l76.43,4.45,82.27,4.79v184.22h43.4v-181.68l71.1,4.13,71.32,4.14v173.42h36.62v-171.25l65.09,3.8,59.7,3.49v163.96h31.2v-162.16l59.76,3.48,48.76,2.84v155.84h24.42v-154.41l53.74,3.15,37.14,2.18v149.07h18.99v-148.01l48.41,2.83,26.19,1.53v143.65h12.21v-348.59h-12.21v65.35l-26.19-9.97-48.41-18.4v-146.85h-18.99v139.91l-37.14-14.21-53.74-20.51v-185.21h-24.42v175.88l-48.76-18.45-59.76-22.63v-228.39h-31.2v216.66l-59.7-22.69-65.09-24.74v-249.26h-36.62v235.15l-71.32-26.93-71.1-26.85v-261.39h-43.4v244.88l-82.27-31.17-76.43-28.96v-264.78h-48.83v245.88l-93.56-35.41-93.63-35.44v-280.82h-55.61v977.96h55.61ZM1488.9,1163.24l26.19,8.06v105.11l-26.19-3.44-48.41-6.35v-118.28l48.41,14.89ZM1384.36,1131.24l37.14,11.49v121.5l-37.14-4.9-53.74-7.07v-137.61l53.74,16.59ZM1257.45,1092.17l48.76,14.92v141.95l-48.76-6.36-59.76-7.8v-161.01l59.76,18.3ZM1106.8,1046.03l59.7,18.35v166.45l-59.7-7.82-65.09-8.53v-188.46l65.09,20.01ZM933.77,992.82l71.32,21.79v195.01l-71.32-9.29-71.1-9.26v-219.97l71.1,21.72ZM737,932.53l82.27,25.21v227.64l-82.27-10.75-76.43-9.98v-255.54l76.43,23.42ZM518.18,865.17l93.56,28.65v264.32l-93.56-12.21-93.63-12.22v-297.2l93.63,28.67Z"/>
      <polygon class="cls-3" points="4463.89 1213.49 4461.17 1213.49 4461.17 1217.81 4386.03 1213.49 4377.08 1213.49 4377.08 1251.47 4463.89 1251.47 4463.89 1213.49"/>
      <rect class="cls-3" x="4377.08" y="1396.61" width="86.81" height="39.34"/>
      <rect class="cls-3" x="4377.08" y="1259.61" width="86.81" height="37.98"/>
      <rect class="cls-3" x="4377.08" y="1305.73" width="86.81" height="37.98"/>
      <rect class="cls-3" x="4377.08" y="1351.84" width="86.81" height="37.98"/>
      <polygon class="cls-6" points="4411.47 1130.2 4414.97 1140.25 4284.16 1140.25 4287.4 1137.35 4231.99 1140.69 4492.67 1154.32 4448.36 1128.18 4411.47 1130.2"/>
      <polygon class="cls-6" points="4386.46 1094.83 4324.84 1100.91 4401.41 1100.91 4386.46 1094.83"/>
      <polygon class="cls-3" points="4414.97 1140.25 4411.47 1130.24 4401.41 1100.91 4324.84 1100.91 4287.4 1137.39 4284.16 1140.25 4414.97 1140.25"/>
      <path class="cls-3" d="M5424.21,1437.3v-414.17l-1.76-.1-16.72-.78-13.14.88,11.27,1.4v457.86l20.35-5.43v59.76l-895.22-402.61v302.55l-.58.63h-35.04l-.71-282.74-260.68-13.49.71,296.23h-655.89v-311.1l-28.48,21.15v63.32c-18.99,18.7-60.3,55.24-126.03,94.41-9.26.86-19.12,1.9-29.21,2.79l-2.7-22.49h18.23v-54.26h-24.19l-3.48-31.2h.54v-48.83h-28.48v24.29c-32.55,9.07-122.92,33.51-242.03,57.79-159.11-65.08-279.86-123.7-362.13-166.88-113.89-59.77-177.28-101.75-192.86-112.43l-.95-6.24h-44l-3.25,21.7h12.4v324.49c-1.36-.07-4.07-.14-5.43-.22v-10.94h-42.05v-115.29h20.96c7.43,0,13.5-6.81,13.5-14.24s-6.08-14.24-13.5-14.24h-21.48c-1.79,0-3.5,0-5.06,1.36h-1.19v-154.63h13.57l-3.25-21.7h-44l-.71,4.62c-5.6,8.83-59.67,92.01-170.79,200.19h-46.93l-1.76,7.17c-2.55-1.81-5.65-3.11-8.99-3.11h-50.46l-25.41,107.16h-43.76v-52.9h27c9.47,0,17.22-7.48,17.22-16.95s-7.75-16.96-17.22-16.96h-55.63l-20.64,86.81h-395.63l-8.13,12.21h172.27v13.56h-252.68l-8.14,13.56h172.65v18.99h-36.62v6.78h36.62v20.35h-126.14v6.78h126.14v65.11h-199.39v-143.65l-25.77-1.53v145.18h-67.82v-149.07l-36.62-2.18v151.26h-78.67v-155.84l-48.83-2.84v158.68h-90.88v-163.96l-59.68-3.49v167.45h-101.73v-173.42l-71.89-4.14v177.56h-113.94v-184.22l-81.38-4.79v189.01h-126.14v-196.37l-93.59-5.44v201.81h-149.2V459.34h-104.44v309.01l-160.05,56.5v-459.11H0v1753.81h5425.57v-682.27h-1.36ZM2102.96,1204h8.54c3.43,0,6.24,2.67,6.24,6.1s-2.81,6.1-6.24,6.1h-8.54c-3.43,0-6.24-2.67-6.24-6.1s2.81-6.1,6.24-6.1ZM4290.27,1206.96v-50.75l75.96,4.84v-.27l.63.29,94.32,6v38.29h2.71v-31.01l9.49-13.56v294.15h-9.49v-12.21h-86.81v12.21h-10.85v-243.13l-75.96-4.84ZM2020.13,1338.28h-43.86v-18.99h48.49l-4.63,18.99ZM2259.36,1178.23h5.88c3.11,0,5.66,2.99,5.66,6.1s-2.55,6.11-5.66,6.11h-7.75c-2.77,0-5.08-2.37-5.56-5.09,2.5-2.38,4.98-4.76,7.42-7.11ZM2178.37,1314.49v-63.55c6.78-5.51,12.83-10.98,19.05-16.41l-19.05,79.96ZM2087.49,1374.9h-4.07v-29.84h4.07v29.84ZM2013.73,1365.41h-37.47v-20.35h42.2l-4.74,20.35ZM1964.06,1365.41h-75.96v-20.35h75.96v20.35ZM1964.06,1338.28h-75.96v-18.99h75.96v18.99ZM1875.89,1338.28h-61.04v-18.99h61.04v18.99ZM1875.89,1345.06v20.35h-61.04v-20.35h61.04ZM1875.89,1372.19v65.11h-61.04v-65.11h61.04ZM1888.1,1372.19h75.96v65.11h-75.96v-65.11ZM1976.26,1372.19h35.81l-.7,2.71h-28.32v62.39h-6.78v-65.11ZM2355.85,1178.23c1.76,0,3.1-.36,4.65-.98l-26.14,108.31v-107.33h21.5ZM2345.1,1163.98c0-2.69,2.2-4.75,4.9-4.75h6.7c2.69,0,4.9,2.05,4.9,4.75s-2.2,4.75-4.9,4.75h-6.7c-2.69,0-4.9-2.06-4.9-4.75ZM2514.75,1346.53c1.36.03,4.07.07,5.43.1v90.66h-5.43v-90.77ZM2545.95,1346.97c35.27.44,70.55.64,104.93.64,238.84,0,442.57-9.82,584.53-19.4,22.87-1.54,44.65-3.12,65.44-4.69,12.29,4.43,24.71,9.04,37.33,13.52l-11.08,100.26h-781.15v-90.33ZM3339.91,1320.88c-.33-.12-.66-.24-1-.36.35-.03.7-.05,1.05-.08l-.05.44ZM3339.12,1328.06l-.58,5.23c-9.83-3.49-19.56-6.97-29.2-10.43,4.25-.33,8.45-.66,12.61-.98,5.69,2.06,11.41,4.12,17.17,6.18ZM3290.49,1316.07c-69.26-25.04-133.29-49.13-192.09-71.99,4.66-.93,9.28-1.86,13.86-2.8,58.55,23.89,122.24,48.64,191.07,73.81-4.24.32-8.51.65-12.83.97ZM3281.92,1316.71c-15.22,1.12-30.66,2.23-46.92,3.33-162.26,10.95-405.57,22.21-689.06,18.73v-36.11c8.14.16,18.66.25,28.31.25,60.15,0,124.38-3.13,192.39-9.37,92.49-8.49,191.79-22.74,295.31-42.34,10.2-1.93,20.2-3.88,30.06-5.83,58.15,22.65,121.43,46.52,189.9,71.35ZM3395.02,1327.26c8.32-4.52,16.71-9.12,24.38-13.61,62.77-5.82,107.22-10.91,128.92-13.5v137.14h-141.17l-12.12-110.03ZM3548.32,1218.82v73.08c-20.35,2.31-57.65,6.71-112.25,11.92,55.89-34.42,91.91-66.24,112.25-84.99ZM3405.04,1314.86c-3.51,1.98-7.08,3.97-10.71,5.96l-.55-4.95c3.81-.34,7.56-.68,11.26-1.01ZM3353,1183.9v16.02h.3l-3.48,31.2h-23.95v54.26h17.99l-2.99,26.91c-6.74.55-13.62,1.02-20.62,1.57-70.49-25.57-135.71-50.77-195.63-75.09,110.82-22.96,195.82-45.64,228.37-54.88ZM2558.28,969.34l-.89-6.08c22.19,14.88,84.21,54.74,187.99,109.21,80.77,42.39,198.54,99.61,353.2,163.24-4.76.95-9.56,1.89-14.41,2.84-152.39-59.57-268.31-110.45-348.24-147.39-108.25-50.03-171-84.08-189.99-94.91v-26.91h12.33ZM2545.95,1000.28c20.35,11.82,83.19,45.39,188.44,94.04,79.08,36.56,193.53,86.73,343.51,145.48-5.75,1.12-11.32,2.23-17.17,3.34-138.89,26.3-333.02,54.34-514.78,51.3v-294.16ZM2520.18,1302.04v36.39c-1.36-.03-4.07-.07-5.43-.1v-36.51c1.36.08,4.07.14,5.43.21ZM2487.81,1148.39h6.7c2.69,0,4.9,2.06,4.9,4.75s-2.2,4.75-4.9,4.75h-6.7c-2.69,0-4.9-2.06-4.9-4.75s2.2-4.75,4.9-4.75ZM2369.39,1060.75c30.35-36.28,50.17-63.93,60.09-78.53l-.49,3.4h12.52v188.51l-25.51,108.54h-21.96v18.99h-6.78v-115.29h21.52c7.43,0,13.5-6.14,13.5-13.56s-6.08-13.57-13.5-13.57h-40.61c-2.12-5.43-6.85-8.14-12.31-8.14h-43.62l-34.04,142.42h-22.5v40.69h-16.28v-135.64h24.85c8.59,0,15.62-6.33,15.62-14.92,0-7.1-4.81-12.64-11.32-14.36,43.27-42.36,76.85-79.87,100.83-108.54ZM2398.03,1172.8c0-2.7,2.2-5.43,4.89-5.43h6.7c2.69,0,4.9,2.73,4.9,5.43s-2.2,5.42-4.9,5.42h-6.7c-2.69,0-4.89-2.74-4.89-5.42ZM2196.28,1182.3h7.75c2.54,0,4.67,1.99,5.38,4.41l-1.41,5.94c-1.02,1.12-2.43,1.86-3.97,1.86h-7.75c-3.11,0-5.66-2.99-5.66-6.1s2.55-6.1,5.66-6.1ZM2203.04,1204c.78,0,1.54-.08,2.29-.19l-5.28,20.87c-6.96,6.15-13.56,12.34-21.69,18.58v-39.26h24.68ZM2124.18,1292.16l-11.6,48.83h-10.18v-2.71h-18.99v-46.12h40.77ZM2027.75,1305.73h-51.48v-13.56h54.89l-3.41,13.56ZM1814.85,1292.16h149.2v13.56h-149.2v-13.56ZM1726.69,1319.29h75.96v18.99h-75.96v-18.99ZM1726.69,1345.06h75.96v20.35h-75.96v-20.35ZM1726.69,1372.19h75.96v65.11h-75.96v-65.11ZM264.5,1437.3H104.44v-33.59l160.05-132.02v165.61ZM104.44,950.85l160.05-76.03v289.53l-160.05,113.01v-326.52Z"/>
      <polygon class="cls-2" points="4469.31 1213.49 4463.89 1213.49 4463.89 1251.47 4469.31 1251.47 4469.31 1259.61 4463.89 1259.61 4463.89 1297.59 4469.31 1297.59 4469.31 1305.73 4463.89 1305.73 4463.89 1343.71 4469.31 1343.71 4469.31 1351.84 4463.89 1351.84 4463.89 1389.82 4469.31 1389.82 4469.31 1396.61 4463.89 1396.61 4463.89 1435.94 4469.31 1435.94 4469.31 1442.72 4463.89 1442.72 4463.89 1454.93 4473.38 1454.93 4473.38 1160.78 4463.89 1174.34 4463.89 1205.35 4469.31 1205.35 4469.31 1213.49"/>
      <polygon class="cls-6" points="4469.31 1259.61 4469.31 1251.47 4463.28 1251.47 4377.08 1251.47 4377.08 1259.61 4463.28 1259.61 4469.31 1259.61"/>
      <polygon class="cls-6" points="4469.31 1305.73 4469.31 1297.59 4463.28 1297.59 4377.08 1297.59 4377.08 1305.73 4463.28 1305.73 4469.31 1305.73"/>
      <polygon class="cls-6" points="4469.31 1351.84 4469.31 1343.71 4463.28 1343.71 4377.08 1343.71 4377.08 1351.84 4463.28 1351.84 4469.31 1351.84"/>
      <polygon class="cls-6" points="4469.31 1396.61 4469.31 1389.82 4463.28 1389.82 4377.08 1389.82 4377.08 1396.61 4463.28 1396.61 4469.31 1396.61"/>
      <polygon class="cls-6" points="4469.31 1435.94 4463.28 1435.94 4377.08 1435.94 4377.08 1442.72 4463.28 1442.72 4469.31 1442.72 4469.31 1435.94"/>
      <polygon class="cls-2" points="4461.17 1213.49 4386.03 1213.49 4461.17 1217.81 4461.17 1213.49"/>
      <polygon class="cls-6" points="4303.83 1195.19 4321.47 1196.54 4321.47 1169.25 4303.83 1167.9 4303.83 1195.19"/>
      <polygon class="cls-6" points="4335.03 1196.8 4352.66 1198.16 4352.66 1170.87 4335.03 1169.51 4335.03 1196.8"/>
      <polygon class="cls-6" points="4448.97 1177.57 4404.21 1174.66 4404.21 1201.94 4448.97 1204.85 4448.97 1177.57"/>
      <polygon class="cls-6" points="4377.08 1213.49 4386.03 1213.49 4460.28 1213.49 4463.28 1213.49 4469.31 1213.49 4469.31 1205.35 4463.28 1205.35 4460.28 1205.35 4377.08 1205.35 4377.08 1213.49"/>
      <path class="cls-2" d="M4366.23,1454.93h10.85v-249.58h84.1v-38.29l-94.32-6-.63-.29v.27l-75.96-4.84v50.75l75.96,4.84v243.13ZM4321.47,1196.54l-17.63-1.36v-27.29l17.63,1.36v27.29ZM4352.66,1198.16l-17.63-1.36v-27.29l17.63,1.36v27.29ZM4404.21,1174.66l44.76,2.91v27.29l-44.76-2.91v-27.29Z"/>
      <polygon class="cls-6" points="5393.01 1082.46 5393.01 1134.11 5393.01 1179.54 5393.01 1200.58 5393.01 1300.82 5393.01 1321.87 5393.01 1432 5383.52 1428.54 5383.52 1460.05 5363.17 1465.31 5363.17 1021 5352.32 1019.65 5352.32 1056.77 5352.32 1077.17 5352.32 1134.11 5352.32 1170.41 5352.32 1190.81 5352.32 1288.05 5352.32 1308.45 5352.32 1416.73 5341.47 1412.91 5341.47 1443.13 5321.13 1448.24 5321.13 1017.49 5311.63 1016.17 5311.63 1052.12 5311.63 1071.89 5311.63 1134.11 5311.63 1161.28 5311.63 1181.05 5311.63 1275.27 5311.63 1295.04 5311.63 1401.47 5299.42 1397.28 5299.42 1426.22 5280.43 1431.16 5280.43 1013.97 5270.94 1012.7 5270.94 1047.47 5270.94 1066.6 5270.94 1134.11 5270.94 1152.15 5270.94 1171.28 5270.94 1262.49 5270.94 1281.62 5270.94 1386.2 5258.73 1381.66 5258.73 1409.3 5239.74 1414.09 5239.74 1010.45 5228.89 1009.22 5228.89 1042.83 5228.89 1061.32 5228.89 1134.11 5228.89 1143.03 5228.89 1161.51 5228.89 1249.72 5228.89 1268.21 5228.89 1370.93 5216.68 1366.03 5216.68 1392.39 5197.69 1397.01 5197.69 1006.93 5188.2 1005.74 5188.2 1038.18 5188.2 1056.03 5188.2 1133.9 5188.2 1151.75 5188.2 1236.94 5188.2 1254.79 5188.2 1355.67 5174.64 1350.4 5174.64 1375.48 5157 1379.94 5157 1003.41 5147.51 1002.27 5147.51 1033.53 5147.51 1050.74 5147.51 1124.77 5147.51 1141.98 5147.51 1224.16 5147.51 1241.38 5147.51 1340.4 5132.59 1334.78 5132.59 1358.56 5114.95 1362.86 5114.95 999.9 5106.82 998.79 5106.82 1028.89 5106.82 1045.46 5106.82 1115.64 5106.82 1132.21 5106.82 1134.11 5106.82 1211.39 5106.82 1227.96 5106.82 1325.13 5090.54 1319.15 5090.54 1341.65 5074.26 1345.79 5074.26 996.38 5066.12 995.31 5066.12 1024.24 5066.12 1040.17 5066.12 1106.52 5066.12 1122.45 5066.12 1134.11 5066.12 1198.61 5066.12 1214.54 5066.12 1309.87 5048.49 1303.52 5048.49 1324.73 5033.57 1328.71 5033.57 992.86 5025.43 991.84 5025.43 1019.59 5025.43 1034.89 5025.43 1097.39 5025.43 1112.68 5025.43 1134.11 5025.43 1185.83 5025.43 1201.13 5025.43 1294.6 5007.8 1287.9 5007.8 1307.82 4991.52 1311.64 4991.52 989.34 4984.74 988.36 4984.74 1014.95 4984.74 1029.6 4984.74 1088.26 4984.74 1102.92 4984.74 1134.11 4984.74 1173.06 4984.74 1187.71 4984.74 1279.33 4965.75 1272.27 4965.75 1290.91 4950.83 1294.56 4950.83 985.82 4944.05 984.88 4944.05 1010.3 4944.05 1024.32 4944.05 1079.13 4944.05 1093.15 4944.05 1134.11 4944.05 1160.28 4944.05 1174.3 4944.05 1264.07 4923.7 1256.64 4923.7 1273.99 4910.14 1277.49 4910.14 982.3 4902 981.41 4902 1005.65 4902 1019.03 4902 1070 4902 1083.38 4902 1134.11 4902 1147.5 4902 1160.88 4902 1248.8 4881.66 1241.02 4881.66 1257.08 4868.09 1260.42 4868.09 978.79 4861.31 977.93 4861.31 1001.01 4861.31 1013.75 4861.31 1060.88 4861.31 1073.62 4861.31 1134.11 4861.31 1134.73 4861.31 1147.46 4861.31 1233.53 4839.61 1225.39 4839.61 1240.17 4827.4 1243.34 4827.4 975.27 4820.62 974.45 4820.62 996.36 4820.62 1008.46 4820.62 1051.75 4820.62 1063.85 4820.62 1121.95 4820.62 1134.05 4820.62 1134.11 4820.62 1218.27 4797.56 1209.76 4797.56 1223.25 4786.71 1226.27 4786.71 971.75 4779.93 970.97 4779.93 991.72 4779.93 1003.18 4779.93 1042.62 4779.93 1054.08 4779.93 1109.17 4779.93 1120.63 4779.93 1134.11 4779.93 1203 4756.87 1194.13 4756.87 1206.34 4744.66 1209.19 4744.66 968.23 4739.23 967.5 4739.23 987.07 4739.23 997.89 4739.23 1033.49 4739.23 1044.31 4739.23 1096.4 4739.23 1107.22 4739.23 1134.11 4739.23 1187.73 4714.82 1178.51 4714.82 1189.42 4703.97 1192.12 4703.97 964.71 4698.54 964.02 4698.54 982.42 4698.54 992.61 4698.54 1024.37 4698.54 1034.55 4698.54 1083.62 4698.54 1093.8 4698.54 1134.11 4698.54 1172.47 4672.77 1162.88 4672.77 1172.51 4661.92 1175.04 4661.92 961.2 4657.85 960.54 4657.85 977.78 4657.85 987.32 4657.85 1015.24 4657.85 1024.78 4657.85 1070.84 4657.85 1080.39 4657.85 1134.11 4657.85 1157.2 4630.72 1147.25 4630.72 1155.59 4621.23 1157.97 4621.23 957.68 4617.16 957.07 4617.16 973.13 4617.16 982.04 4617.16 1006.11 4617.16 1015.02 4617.16 1058.07 4617.16 1066.97 4617.16 1134.11 4617.16 1141.93 4595.23 1133.47 4593.97 1133.47 4588.67 1133.47 4588.67 1138.68 4580.54 1140.89 4580.54 954.16 4575.11 953.59 4575.11 968.48 4575.11 976.75 4575.11 996.98 4575.11 1005.25 4575.11 1045.29 4575.11 1053.56 4575.11 1133.47 4528.06 1133.47 5424.21 1536.72 5424.21 1476.96 5403.87 1482.38 5403.87 1024.52 5393.01 1023.13 5393.01 1061.41 5393.01 1082.46"/>
      <polygon class="cls-3" points="5363.17 1465.31 5383.52 1460.05 5383.52 1428.54 5383.52 1318.82 5393.01 1321.87 5393.01 1300.82 5383.52 1297.92 5383.52 1198.36 5393.01 1200.58 5393.01 1179.54 5383.52 1177.46 5383.52 1134.11 5383.52 1081.26 5393.01 1082.46 5393.01 1061.41 5383.52 1060.36 5383.52 1019.65 5364.88 1018.8 5352.18 1019.65 5363.17 1021 5363.17 1465.31"/>
      <polygon class="cls-3" points="5321.13 1448.24 5341.47 1443.13 5341.47 1412.91 5341.47 1305.09 5352.32 1308.45 5352.32 1288.05 5341.47 1284.85 5341.47 1188.37 5352.32 1190.81 5352.32 1170.41 5341.47 1168.12 5341.47 1134.11 5341.47 1075.85 5352.32 1077.17 5352.32 1056.77 5341.47 1055.6 5341.47 1016.17 5323.5 1015.35 5310.83 1016.17 5321.13 1017.49 5321.13 1448.24"/>
      <polygon class="cls-3" points="5280.43 1431.16 5299.42 1426.22 5299.42 1397.28 5299.42 1291.36 5311.63 1295.04 5311.63 1275.27 5299.42 1271.77 5299.42 1178.37 5311.63 1181.05 5311.63 1161.28 5299.42 1158.78 5299.42 1134.11 5299.42 1070.44 5311.63 1071.89 5311.63 1052.12 5299.42 1050.84 5299.42 1012.7 5282.14 1011.9 5270.16 1012.7 5280.43 1013.97 5280.43 1431.16"/>
      <polygon class="cls-3" points="5239.74 1414.09 5258.73 1409.3 5258.73 1381.66 5258.73 1277.63 5270.94 1281.62 5270.94 1262.49 5258.73 1258.69 5258.73 1168.37 5270.94 1171.28 5270.94 1152.15 5258.73 1149.44 5258.73 1134.11 5258.73 1065.03 5270.94 1066.6 5270.94 1047.47 5258.73 1046.09 5258.73 1009.22 5241.44 1008.45 5229.83 1009.22 5239.74 1010.45 5239.74 1414.09"/>
      <polygon class="cls-3" points="5197.69 1397.01 5216.68 1392.39 5216.68 1366.03 5216.68 1263.9 5228.89 1268.21 5228.89 1249.72 5216.68 1245.61 5216.68 1158.38 5228.89 1161.51 5228.89 1143.03 5216.68 1140.09 5216.68 1134.11 5216.68 1059.62 5228.89 1061.32 5228.89 1042.83 5216.68 1041.33 5216.68 1005.74 5200.08 1005 5188.49 1005.74 5197.69 1006.93 5197.69 1397.01"/>
      <polygon class="cls-3" points="5157 1379.94 5174.64 1375.48 5174.64 1350.4 5174.64 1250.16 5188.2 1254.79 5188.2 1236.94 5174.64 1232.53 5174.64 1148.38 5188.2 1151.75 5188.2 1133.9 5174.64 1130.75 5174.64 1054.21 5188.2 1056.03 5188.2 1038.18 5174.64 1036.58 5174.64 1002.27 5158.7 1001.54 5147.82 1002.27 5157 1003.41 5157 1379.94"/>
      <polygon class="cls-3" points="5114.95 1362.86 5132.59 1358.56 5132.59 1334.78 5132.59 1236.43 5147.51 1241.38 5147.51 1224.16 5132.59 1219.46 5132.59 1138.38 5147.51 1141.98 5147.51 1124.77 5132.59 1121.41 5132.59 1048.8 5147.51 1050.74 5147.51 1033.53 5132.59 1031.82 5132.59 998.79 5117.33 998.09 5106.47 998.79 5114.95 999.9 5114.95 1362.86"/>
      <polygon class="cls-3" points="5074.26 1345.79 5090.54 1341.65 5090.54 1319.15 5090.54 1222.7 5106.82 1227.96 5106.82 1211.39 5090.54 1206.38 5090.54 1134.11 5090.54 1128.39 5106.82 1132.21 5106.82 1115.64 5090.54 1112.06 5090.54 1043.39 5106.82 1045.46 5106.82 1028.89 5090.54 1027.07 5090.54 995.31 5075.96 994.64 5065.8 995.31 5074.26 996.38 5074.26 1345.79"/>
      <polygon class="cls-3" points="5033.57 1328.71 5048.49 1324.73 5048.49 1303.52 5048.49 1208.97 5066.12 1214.54 5066.12 1198.61 5048.49 1193.3 5048.49 1134.11 5048.49 1118.39 5066.12 1122.45 5066.12 1106.52 5048.49 1102.72 5048.49 1037.98 5066.12 1040.17 5066.12 1024.24 5048.49 1022.31 5048.49 991.84 5034.59 991.19 5025.13 991.84 5033.57 992.86 5033.57 1328.71"/>
      <polygon class="cls-3" points="4991.52 1311.64 5007.8 1307.82 5007.8 1287.9 5007.8 1195.24 5025.43 1201.13 5025.43 1185.83 5007.8 1180.22 5007.8 1134.11 5007.8 1108.39 5025.43 1112.68 5025.43 1097.39 5007.8 1093.38 5007.8 1032.57 5025.43 1034.89 5025.43 1019.59 5007.8 1017.55 5007.8 988.36 4993.9 987.74 4984.12 988.36 4991.52 989.34 4991.52 1311.64"/>
      <polygon class="cls-3" points="4950.83 1294.56 4965.75 1290.91 4965.75 1272.27 4965.75 1181.5 4984.74 1187.71 4984.74 1173.06 4965.75 1167.14 4965.75 1134.11 4965.75 1098.4 4984.74 1102.92 4984.74 1088.26 4965.75 1084.03 4965.75 1027.16 4984.74 1029.6 4984.74 1014.95 4965.75 1012.8 4965.75 984.88 4952.53 984.29 4943.45 984.88 4950.83 985.82 4950.83 1294.56"/>
      <polygon class="cls-3" points="4910.14 1277.49 4923.7 1273.99 4923.7 1256.64 4923.7 1167.77 4944.05 1174.3 4944.05 1160.28 4923.7 1154.07 4923.7 1134.11 4923.7 1088.4 4944.05 1093.15 4944.05 1079.13 4923.7 1074.69 4923.7 1021.75 4944.05 1024.32 4944.05 1010.3 4923.7 1008.04 4923.7 981.41 4911.17 980.84 4902.78 981.41 4910.14 982.3 4910.14 1277.49"/>
      <polygon class="cls-3" points="4868.09 1260.42 4881.66 1257.08 4881.66 1241.02 4881.66 1154.04 4902 1160.88 4902 1147.5 4881.66 1140.99 4881.66 1134.11 4881.66 1078.4 4902 1083.38 4902 1070 4881.66 1065.35 4881.66 1016.34 4902 1019.03 4902 1005.65 4881.66 1003.29 4881.66 977.93 4869.79 977.39 4861.43 977.93 4868.09 978.79 4868.09 1260.42"/>
      <polygon class="cls-3" points="4827.4 1243.34 4839.61 1240.17 4839.61 1225.39 4839.61 1140.31 4861.31 1147.46 4861.31 1134.73 4859.38 1134.11 4839.61 1127.91 4839.61 1068.4 4861.31 1073.62 4861.31 1060.88 4839.61 1056.01 4839.61 1010.93 4861.31 1013.75 4861.31 1001.01 4839.61 998.53 4839.61 974.45 4828.42 973.94 4820.77 974.45 4827.4 975.27 4827.4 1243.34"/>
      <polygon class="cls-3" points="4786.71 1226.27 4797.56 1223.25 4797.56 1209.76 4797.56 1134.11 4797.56 1126.58 4820.62 1134.05 4820.62 1121.95 4797.56 1114.83 4797.56 1058.41 4820.62 1063.85 4820.62 1051.75 4797.56 1046.66 4797.56 1005.52 4820.62 1008.46 4820.62 996.36 4797.56 993.77 4797.56 970.97 4787.05 970.49 4780.1 970.97 4786.71 971.75 4786.71 1226.27"/>
      <polygon class="cls-3" points="4744.66 1209.19 4756.87 1206.34 4756.87 1194.13 4756.87 1134.11 4756.87 1112.84 4779.93 1120.63 4779.93 1109.17 4756.87 1101.75 4756.87 1048.41 4779.93 1054.08 4779.93 1042.62 4756.87 1037.32 4756.87 1000.11 4779.93 1003.18 4779.93 991.72 4756.87 989.02 4756.87 967.5 4746.36 967.04 4739.09 967.5 4744.66 968.23 4744.66 1209.19"/>
      <polygon class="cls-3" points="4703.97 1192.12 4714.82 1189.42 4714.82 1178.51 4714.82 1134.11 4714.82 1099.11 4739.23 1107.22 4739.23 1096.4 4714.82 1088.68 4714.82 1038.41 4739.23 1044.31 4739.23 1033.49 4714.82 1027.98 4714.82 994.7 4739.23 997.89 4739.23 987.07 4714.82 984.26 4714.82 964.02 4704.99 963.59 4698.42 964.02 4703.97 964.71 4703.97 1192.12"/>
      <polygon class="cls-3" points="4661.92 1175.04 4672.77 1172.51 4672.77 1162.88 4672.77 1134.11 4672.77 1085.38 4698.54 1093.8 4698.54 1083.62 4672.77 1075.6 4672.77 1028.42 4698.54 1034.55 4698.54 1024.37 4672.77 1018.63 4672.77 989.29 4698.54 992.61 4698.54 982.42 4672.77 979.51 4672.77 960.54 4663.62 960.13 4657.07 960.54 4661.92 961.2 4661.92 1175.04"/>
      <polygon class="cls-3" points="4621.23 1157.97 4630.72 1155.59 4630.72 1147.25 4630.72 1134.11 4630.72 1071.65 4657.85 1080.39 4657.85 1070.84 4630.72 1062.52 4630.72 1018.42 4657.85 1024.78 4657.85 1015.24 4630.72 1009.29 4630.72 983.88 4657.85 987.32 4657.85 977.78 4630.72 974.75 4630.72 957.07 4622.25 956.68 4616.4 957.07 4621.23 957.68 4621.23 1157.97"/>
      <polygon class="cls-3" points="4580.54 1140.89 4588.67 1138.68 4588.67 1134.11 4588.67 1057.92 4617.16 1066.97 4617.16 1058.07 4588.67 1049.44 4588.67 1008.42 4617.16 1015.02 4617.16 1006.11 4588.67 999.95 4588.67 978.47 4617.16 982.04 4617.16 973.13 4588.67 969.99 4588.67 953.59 4580.88 953.23 4575.73 953.59 4580.54 954.16 4580.54 1140.89"/>
    </g>
  </g>
</svg>