<?xml version="1.0" encoding="UTF-8"?>
<svg id="Layer_2" data-name="Layer 2" xmlns="http://www.w3.org/2000/svg" viewBox="0 0 3115.02 1177.56">
  <defs>
    <style>
      .cls-1 {
        fill: #292654;
        stroke-width: 0px;
      }
    </style>
  </defs>
  <g id="mountain">
    <path class="cls-1" d="M274.34,1002.41c16.94-6.16,34.11-11.89,51.69-16.91,107.92-30.81,218.33-56.15,325.47-90.93,82.55-26.8,166.18-47.99,248.98-73.46,96.39-29.64,193.39-56.71,281.76-103.17,100.96-53.07,202.8-104.47,305.7-153.69,47.62-22.78,94.18-20.64,141.07-38.65,48.31-18.56,81.15-22.37,127.56,6.71,44.81,28.07,89.29,63.65,130.82,97.13,28.46,22.95,55.38,48.3,81.98,73.11,49.28,45.97,137.61,122.27,209.89,117.27,55.04-3.81,178.39,73.7,199.27,74.25,20.88.54,201.17,15.79,252.41,14.7,51.24-1.09,102.48-13.61,144.23-11.43,41.75,2.18,83.5-17.58,132.85-11.79,49.34,5.8,150.89,59.69,180.77,64.59,29.88,4.9,26.09,226.74,26.09,226.75,0,.15-52.67,0-55.4,0-266.54,0-533.09-27.13-799.63-27.13h-1162.63c-159.92,0-319.83,27.13-479.75,27.13-57.56,0-115.35,1.52-172.88,0-51.01-1.35-95.99-20.8-146.88-22.81-84.49-3.33-169.16,1.71-253.72-2.24-57.41-2.68-55.51-20.47-12.28-49.59,43.81-29.52,96.17-41.81,144.52-61.09,32.76-13.06,65.01-26.71,98.11-38.74Z"/>
    <polygon class="cls-1" points="1762.6 279.42 1772.1 279.42 1772.1 400.14 1768.03 400.14 1768.03 410.99 1763.96 410.99 1763.96 428.62 1772.1 428.62 1772.1 568.33 1787.02 568.33 1787.02 428.62 1793.8 428.62 1793.8 410.99 1791.09 410.99 1791.09 400.14 1787.02 400.14 1787.02 279.42 1795.15 279.42 1795.15 271.28 1808.72 271.28 1808.72 242.79 1803.29 242.79 1803.29 214.31 1792.44 214.31 1792.44 193.96 1788.37 193.96 1788.37 176.33 1781.59 176.33 1781.59 173.62 1787.02 173.62 1787.02 165.48 1781.59 165.48 1781.59 161.41 1787.02 161.41 1787.02 143.78 1781.59 143.78 1781.59 137 1787.02 137 1787.02 126.14 1781.59 126.14 1781.59 118.01 1784.3 118.01 1784.3 111.22 1781.59 111.22 1781.59 86.81 1788.37 86.81 1788.37 82.74 1781.59 82.74 1781.59 27.13 1784.3 27.13 1784.3 13.56 1781.59 13.56 1781.59 0 1777.52 0 1777.52 13.56 1774.81 13.56 1774.81 27.13 1777.52 27.13 1777.52 82.74 1770.74 82.74 1770.74 86.81 1777.52 86.81 1777.52 111.22 1774.81 111.22 1774.81 118.01 1777.52 118.01 1777.52 126.14 1770.74 126.14 1770.74 137 1777.52 137 1777.52 143.78 1770.74 143.78 1770.74 161.41 1777.52 161.41 1777.52 165.48 1770.74 165.48 1770.74 173.62 1777.52 173.62 1777.52 176.33 1769.38 176.33 1769.38 193.96 1765.31 193.96 1765.31 214.31 1755.82 214.31 1755.82 242.79 1750.39 242.79 1750.39 271.28 1762.6 271.28 1762.6 279.42"/>
    <polygon class="cls-1" points="1724.62 496.44 1713.77 496.44 1713.77 485.59 1724.93 485.59 1722.21 453.04 1713.77 453.04 1713.77 432.69 1720.55 432.69 1720.55 425.91 1713.77 425.91 1713.77 423.19 1717.84 423.19 1717.84 362.16 1713.77 362.16 1713.77 291.62 1717.84 291.62 1717.84 279.42 1713.77 279.42 1713.77 249.58 1709.7 249.58 1709.7 279.42 1705.63 279.42 1705.63 291.62 1709.7 291.62 1709.7 362.16 1704.28 362.16 1704.28 423.19 1709.7 423.19 1709.7 425.91 1702.92 425.91 1702.92 432.69 1709.7 432.69 1709.7 453.04 1700.51 453.04 1697.8 485.59 1709.7 485.59 1709.7 496.44 1697.49 496.44 1697.49 520.85 1724.62 520.85 1724.62 496.44"/>
    <polygon class="cls-1" points="1458.77 553.41 1450.36 553.41 1449.67 507.29 1443.85 507.29 1443.85 480.16 1435.71 480.16 1435.71 507.29 1429.32 507.29 1428.63 553.41 1419.43 553.41 1419.43 600.88 1458.77 600.88 1458.77 553.41"/>
  </g>
</svg>